<svg width="559" height="353" viewBox="0 0 559 353" fill="none" xmlns="http://www.w3.org/2000/svg">
<rect x="7" y="14" width="507" height="334" fill="black"/>
<path d="M99.1 105.9L97.6 110C93.4 109.8 91 109.7 87.2 109.7C82.1 109.7 80.8 109.8 76 110L74.9 105.9C78.3 104.7 81.3 103 83.7 101L79.5 50.7H78.7L60 101.8H54.9L32.3 51.7H31.5L30.3 101C33.1 103.1 37.6 105.2 39.7 105.9L38.5 110C35.2 109.8 30.4 109.7 27.4 109.7C23 109.7 20.8 109.8 16.6 110L15.4 105.9C17.1 105.3 20.3 104 22.7 102.5L26.4 48.9C23.6 46.9 20.5 45.4 17.4 44L18.6 40C20.4 40.2 23.9 40.4 26.3 40.4C29.3 40.4 33.1 40.3 36.3 40L58.4 89.7H59.1L76.6 40C80 40.3 84.4 40.4 87.5 40.4C89.9 40.4 93.5 40.3 95.2 40.1L96.4 44.1C93.3 45.5 90.5 47 87.9 48.8L91.8 102.5C94.2 104.1 97.4 105.3 99.1 105.9ZM164.253 47.8L163.353 75.2C162.553 99.8 153.453 111.2 137.653 111.2C120.453 111.2 111.353 101.3 111.353 79.4V47.8C109.353 46.3 105.853 44.9 103.653 44.1L104.853 40C108.053 40.2 111.653 40.3 115.553 40.3C119.153 40.3 124.453 40.2 127.753 40L129.053 44.1C126.353 45.1 122.553 46.4 119.753 48V77.9C119.753 97.9 126.253 106.1 138.853 106.1C149.553 106.1 157.553 98.2 157.553 77.7V75.6C157.553 68.3 156.953 54.9 156.553 48C154.153 46.4 150.053 44.8 147.953 44.1L149.153 40C152.453 40.2 155.253 40.3 159.553 40.3C163.853 40.3 167.053 40.2 170.553 40L171.953 44.1C169.453 45 166.253 46.3 164.253 47.8ZM221.925 92.7C221.925 103.7 213.325 111.2 197.425 111.2C190.625 111.2 182.225 110.6 177.525 108.6L177.225 107.4C178.325 103.3 179.825 96.9 180.025 91.6H183.725L188.425 105.9C191.325 106.3 195.025 106.5 197.425 106.5C208.725 106.5 213.925 102.7 213.925 94.9C213.925 87.7 210.625 83.6 197.625 78.7C182.925 73.1 178.325 66.5 178.325 57.3C178.325 47.3 185.625 38.8 199.325 38.8C206.225 38.8 215.225 39.5 220.325 41.3L220.625 42.5C219.525 46.5 218.025 53 217.825 58.1H214.125L209.325 43.9C206.925 43.6 203.325 43.5 201.125 43.5C191.925 43.5 186.225 47.2 186.225 55C186.225 62.3 190.925 67.1 201.425 71.1C216.925 77 221.925 83.4 221.925 92.7ZM247.022 33.8L245.922 30C251.122 28.8 260.122 23.6 265.222 19.4L268.722 26.9C261.322 29.8 254.222 32.4 247.022 33.8ZM231.022 110L229.822 105.9C231.722 105.3 234.322 104.4 237.422 102.2V48C234.622 45.9 231.822 44.8 229.822 44.1L231.022 40C239.122 40.5 246.122 40.6 252.822 40.6C258.922 40.6 268.422 40.5 279.022 40L279.622 41.1C279.122 45.3 278.922 48.7 278.922 52.9C278.922 55.1 278.922 56.5 279.122 58.7H275.422L270.122 45.6H245.822V72.7H262.122C264.522 68.7 265.622 66.6 266.722 64L270.622 64.9C270.322 68.9 270.122 72.2 270.122 75.5C270.122 78.9 270.322 82.1 270.622 86.1L266.722 87.1C265.422 83.4 263.922 80.7 262.022 77.5H245.822V104.4H270.122L275.522 91.3H279.222C279.022 93.8 279.022 95.4 279.022 98C279.022 101.8 279.122 104.8 279.722 108.7L279.122 109.9C268.122 109.5 259.122 109.4 252.822 109.4C246.122 109.4 239.122 109.5 231.022 110ZM291.127 110L289.927 105.9C291.827 105.3 294.427 104.4 297.527 102.2V48C294.727 45.9 291.927 44.8 289.927 44.1L291.127 40C299.227 40.5 306.227 40.6 312.927 40.6C319.027 40.6 328.527 40.5 339.127 40L339.727 41.1C339.227 45.3 339.027 48.7 339.027 52.9C339.027 55.1 339.027 56.5 339.227 58.7H335.527L330.227 45.6H305.927V72.7H322.227C324.627 68.7 325.727 66.6 326.827 64L330.727 64.9C330.427 68.9 330.227 72.2 330.227 75.5C330.227 78.9 330.427 82.1 330.727 86.1L326.827 87.1C325.527 83.4 324.027 80.7 322.127 77.5H305.927V104.4H330.227L335.627 91.3H339.327C339.127 93.8 339.127 95.4 339.127 98C339.127 101.8 339.227 104.8 339.827 108.7L339.227 109.9C328.227 109.5 319.227 109.4 312.927 109.4C306.227 109.4 299.227 109.5 291.127 110Z" fill="white"/>
<path d="M462.65 160.75C462.65 196.9 443.15 217 413.15 217H372.05L370.25 210.85C373.7 209.65 378.65 207.55 381.65 205.45V123.55C378.65 121.45 373.7 119.5 370.25 118.15L372.05 112H415.25C444.35 112 462.65 125.05 462.65 160.75ZM410.75 119.5H394.25V209.5H415.55C439.7 209.5 450.5 195.4 450.5 170.05C450.5 138.85 439.85 119.5 410.75 119.5ZM498.999 106.6C498.999 119.05 483.999 130.75 473.949 136.45L471.999 135.4V134.35C478.449 129.1 485.349 122.8 488.349 114.7C484.299 109.45 479.799 104.8 476.499 102.1V101.05L490.449 91C495.549 94.9 498.999 101.35 498.999 106.6Z" fill="white"/>
<path d="M265.7 346.9L264.5 351C261 350.8 257.7 350.7 253.8 350.7C249.9 350.7 246.6 350.8 243.3 351L242.1 346.9C244.3 346 247.3 344.7 249.7 343.3V286.7H231.4L225.7 302.2H222.1C222.3 299.5 222.3 297.5 222.3 294.8C222.3 290.5 222.2 285.9 221.6 281.8L222.6 281C232.5 281.4 247.9 281.7 253.9 281.7C260.2 281.7 275.6 281.4 285.2 281L286.2 281.8C285.6 285.9 285.6 290.5 285.6 294.8C285.6 297.5 285.6 299.5 285.7 302.2H282.1L276.5 286.7H258.1V343.3C260.7 344.7 263.2 345.8 265.7 346.9ZM352.944 346.9L351.844 351C348.544 350.8 344.344 350.7 340.644 350.7C336.844 350.7 332.944 350.8 329.644 351L328.444 347.2C331.144 346.3 334.444 344.9 336.844 343.2L331.944 328.5H302.444L297.644 342.7C300.644 344.7 303.344 345.9 306.944 347.2L305.644 351C301.844 350.8 298.544 350.7 294.244 350.7C290.044 350.7 288.044 350.8 284.444 351L283.344 346.9C285.244 346.1 287.644 345.3 289.644 344L310.744 288.8C308.344 287.4 304.844 286.2 302.444 285.2L303.644 281.1C306.844 281.3 311.744 281.4 316.044 281.4C319.344 281.4 322.244 281.3 323.844 281.3L346.644 344C348.844 345.4 351.044 346.1 352.944 346.9ZM317.444 288.6H316.344L303.944 323.5H330.244L317.444 288.6ZM381.591 346.9L380.391 351C377.291 350.8 373.991 350.7 370.291 350.7C366.091 350.7 362.591 350.8 359.191 351L357.991 346.9C360.191 346 363.591 344.6 365.591 343.3V288.7C363.591 287.4 360.191 286 357.991 285.1L359.191 281C362.591 281.2 366.091 281.3 370.291 281.3C373.991 281.3 377.291 281.2 380.391 281L381.591 285.1C379.391 286 375.991 287.4 373.991 288.7V343.3C375.991 344.6 379.391 346 381.591 346.9ZM450.761 288.7V350.7L445.861 352.2L403.661 289.7H402.961L406.061 341.7C408.061 344.2 412.361 346.1 414.961 346.9L413.661 351C409.661 350.8 404.761 350.7 401.261 350.7C399.361 350.7 395.961 350.8 391.661 351L390.461 346.9C392.861 346 396.161 344.7 398.061 343.3V288.7C395.961 287.3 393.061 286 390.461 285.1L391.661 281C393.461 281.2 397.061 281.3 399.661 281.3C403.161 281.3 403.661 281.2 407.461 281L445.561 337.1H446.061L443.061 289.5C440.361 287.6 437.561 285.9 434.961 285.1L436.161 281C440.161 281.2 442.961 281.3 446.961 281.3C449.761 281.3 452.861 281.2 457.161 281L458.361 285.1C456.361 285.9 453.461 287.2 450.761 288.7ZM468.365 351L467.165 346.9C469.065 346.3 471.665 345.4 474.765 343.2V289C471.965 286.9 469.165 285.8 467.165 285.1L468.365 281C476.465 281.5 483.465 281.6 490.165 281.6C496.265 281.6 505.765 281.5 516.365 281L516.965 282.1C516.465 286.3 516.265 289.7 516.265 293.9C516.265 296.1 516.265 297.5 516.465 299.7H512.765L507.465 286.6H483.165V313.7H499.465C501.865 309.7 502.965 307.6 504.065 305L507.965 305.9C507.665 309.9 507.465 313.2 507.465 316.5C507.465 319.9 507.665 323.1 507.965 327.1L504.065 328.1C502.765 324.4 501.265 321.7 499.365 318.5H483.165V345.4H507.465L512.865 332.3H516.565C516.365 334.8 516.365 336.4 516.365 339C516.365 342.8 516.465 345.8 517.065 349.7L516.465 350.9C505.465 350.5 496.465 350.4 490.165 350.4C483.465 350.4 476.465 350.5 468.365 351Z" fill="white"/>
<path d="M71.3 263.9L70.2 268C66.9 267.8 62.7 267.7 59 267.7C55.2 267.7 51.3 267.8 48 268L46.8 264.2C49.5 263.3 52.8 261.9 55.2 260.2L50.3 245.5H20.8L16 259.7C19 261.7 21.7 262.9 25.3 264.2L24 268C20.2 267.8 16.9 267.7 12.6 267.7C8.4 267.7 6.4 267.8 2.8 268L1.7 263.9C3.6 263.1 6 262.3 8 261L29.1 205.8C26.7 204.4 23.2 203.2 20.8 202.2L22 198.1C25.2 198.3 30.1 198.4 34.4 198.4C37.7 198.4 40.6 198.3 42.2 198.3L65 261C67.2 262.4 69.4 263.1 71.3 263.9ZM35.8 205.6H34.7L22.3 240.5H48.6L35.8 205.6ZM134.22 232.7C134.22 253.7 122.42 269.2 103.62 269.2C86.0195 269.2 72.6195 259.2 72.6195 233.3C72.6195 212.3 84.4195 196.8 103.22 196.8C120.82 196.8 134.22 206.8 134.22 232.7ZM126.02 239.1C126.02 217 116.52 202.1 101.12 202.1C87.9195 202.1 80.8195 212 80.8195 226.9C80.8195 249 90.2195 264 105.62 264C118.22 264 126.02 254.6 126.02 239.1ZM131.22 279.8L132.22 279.7V282.9C130.92 286 124.22 291.7 119.32 291.7C114.52 291.7 108.42 288.4 102.72 285.2C96.9195 281.9 91.5195 278.6 87.8195 278.6C84.4195 278.6 81.3195 281.6 79.1195 284.1H78.3195V280.8C79.6195 277.6 86.3195 272 91.2195 272C96.2195 272 102.12 275.3 107.72 278.6C113.32 281.8 118.72 285.1 122.62 285.1C125.72 285.1 129.02 282.2 131.22 279.8ZM202.811 205.8L201.911 233.2C201.111 257.8 192.011 269.2 176.211 269.2C159.011 269.2 149.911 259.3 149.911 237.4V205.8C147.911 204.3 144.411 202.9 142.211 202.1L143.411 198C146.611 198.2 150.211 198.3 154.111 198.3C157.711 198.3 163.011 198.2 166.311 198L167.611 202.1C164.911 203.1 161.111 204.4 158.311 206V235.9C158.311 255.9 164.811 264.1 177.411 264.1C188.111 264.1 196.111 256.2 196.111 235.7V233.6C196.111 226.3 195.511 212.9 195.111 206C192.711 204.4 188.611 202.8 186.511 202.1L187.711 198C191.011 198.2 193.811 198.3 198.111 198.3C202.411 198.3 205.611 198.2 209.111 198L210.511 202.1C208.011 203 204.811 204.3 202.811 205.8ZM240.859 263.9L239.659 268C236.559 267.8 233.259 267.7 229.559 267.7C225.359 267.7 221.859 267.8 218.459 268L217.259 263.9C219.459 263 222.859 261.6 224.859 260.3V205.7C222.859 204.4 219.459 203 217.259 202.1L218.459 198C221.859 198.2 225.359 198.3 229.559 198.3C233.259 198.3 236.559 198.2 239.659 198L240.859 202.1C238.659 203 235.259 204.4 233.259 205.7V260.3C235.259 261.6 238.659 263 240.859 263.9Z" fill="white"/>
</svg>
