<svg width="682" height="297" viewBox="0 0 682 297" fill="none" xmlns="http://www.w3.org/2000/svg">
<rect y="15" width="672" height="232" fill="black"/>
<path d="M25.04 132L23.6 127.08C25.88 126.36 29 125.28 32.72 122.64V57.6C29.36 55.08 26 53.76 23.6 52.92L25.04 48C34.76 48.6 43.16 48.72 51.2 48.72C58.52 48.72 69.92 48.6 82.64 48L83.36 49.32C82.76 54.36 82.52 58.44 82.52 63.48C82.52 66.12 82.52 67.8 82.76 70.44H78.32L71.96 54.72H42.8V87.24H62.36C65.24 82.44 66.56 79.92 67.88 76.8L72.56 77.88C72.2 82.68 71.96 86.64 71.96 90.6C71.96 94.68 72.2 98.52 72.56 103.32L67.88 104.52C66.32 100.08 64.52 96.84 62.24 93H42.8V125.28H71.96L78.44 109.56H82.88C82.64 112.56 82.64 114.48 82.64 117.6C82.64 122.16 82.76 125.76 83.48 130.44L82.76 131.88C69.56 131.4 58.76 131.28 51.2 131.28C43.16 131.28 34.76 131.4 25.04 132ZM174.086 126.96L172.286 131.88C167.966 131.64 163.886 131.52 159.206 131.52C153.926 131.52 150.086 131.64 145.766 131.88L144.326 126.96C147.206 125.76 150.566 124.56 153.686 123L130.526 93.72L108.446 123.24C111.566 124.8 115.286 126.24 117.446 126.96L115.766 131.88C112.166 131.64 106.646 131.52 102.686 131.52C98.8456 131.52 96.6856 131.64 92.0056 131.88L90.5656 126.96C93.6856 125.64 95.8456 124.8 98.6056 123.24L127.166 89.16L101.126 57.12C99.0856 55.32 96.2056 54 93.5656 52.92L95.3656 48C99.6856 48.24 103.766 48.36 108.446 48.36C113.726 48.36 117.566 48.24 121.886 48L123.326 52.92C120.446 54 117.206 55.2 114.086 56.88L134.366 82.56L152.726 56.52C149.726 55.2 146.126 53.64 144.086 52.92L145.766 48C149.246 48.24 154.286 48.36 158.246 48.36C162.086 48.36 164.246 48.24 168.926 48L170.366 52.92C167.246 54.12 165.446 54.96 162.566 56.52L137.606 86.52L166.646 122.76C168.686 124.44 171.326 125.88 174.086 126.96ZM207.893 127.08L206.093 132C201.413 131.76 198.893 131.64 193.613 131.64C188.213 131.64 185.453 131.76 180.893 132L179.453 127.08C182.093 126.12 186.173 124.44 188.573 122.76V57.24C186.173 55.56 182.093 53.88 179.453 52.92L180.893 48H213.893C230.573 48 240.173 53.28 240.173 69.24C240.173 84.72 226.853 96.84 208.733 96.84H202.013V91.2H209.093C224.213 91.2 230.093 80.4 230.093 71.04C230.093 62.16 226.493 54 215.213 54H198.653V122.64C201.053 124.44 204.773 126 207.893 127.08ZM283.368 133.44C262.248 133.44 246.168 121.44 246.168 90.36C246.168 65.16 260.328 46.56 282.888 46.56C304.008 46.56 320.088 58.56 320.088 89.64C320.088 114.84 305.928 133.44 283.368 133.44ZM285.768 127.2C301.608 127.2 310.248 115.2 310.248 97.32C310.248 70.8 298.848 52.92 280.368 52.92C264.528 52.92 256.008 64.8 256.008 82.68C256.008 109.2 267.288 127.2 285.768 127.2Z" fill="white"/>
<path d="M279.64 228.24C279.64 241.44 269.32 250.44 250.24 250.44C242.08 250.44 232 249.72 226.36 247.32L226 245.88C227.32 240.96 229.12 233.28 229.36 226.92H233.8L239.44 244.08C242.92 244.56 247.36 244.8 250.24 244.8C263.8 244.8 270.04 240.24 270.04 230.88C270.04 222.24 266.08 217.32 250.48 211.44C232.84 204.72 227.32 196.8 227.32 185.76C227.32 173.76 236.08 163.56 252.52 163.56C260.8 163.56 271.6 164.4 277.72 166.56L278.08 168C276.76 172.8 274.96 180.6 274.72 186.72H270.28L264.52 169.68C261.64 169.32 257.32 169.2 254.68 169.2C243.64 169.2 236.8 173.64 236.8 183C236.8 191.76 242.44 197.52 255.04 202.32C273.64 209.4 279.64 217.08 279.64 228.24ZM317.436 244.08L315.996 249C312.276 248.76 308.316 248.64 303.876 248.64C298.836 248.64 294.636 248.76 290.556 249L289.116 244.08C291.756 243 295.836 241.32 298.236 239.76V174.24C295.836 172.68 291.756 171 289.116 169.92L290.556 165C294.636 165.24 298.836 165.36 303.876 165.36C308.316 165.36 312.276 165.24 315.996 165L317.436 169.92C314.796 171 310.716 172.68 308.316 174.24V239.76C310.716 241.32 314.796 243 317.436 244.08ZM377.401 244.08L375.961 249C371.761 248.76 367.801 248.64 363.121 248.64C358.441 248.64 354.481 248.76 350.521 249L349.081 244.08C351.721 243 355.321 241.44 358.201 239.76V171.84H336.241L329.401 190.44H325.081C325.321 187.2 325.321 184.8 325.321 181.56C325.321 176.4 325.201 170.88 324.481 165.96L325.681 165C337.561 165.48 356.041 165.84 363.241 165.84C370.801 165.84 389.281 165.48 400.801 165L402.001 165.96C401.281 170.88 401.281 176.4 401.281 181.56C401.281 184.8 401.281 187.2 401.401 190.44H397.081L390.361 171.84H368.281V239.76C371.401 241.44 374.401 242.76 377.401 244.08ZM437.43 244.08L435.99 249C432.27 248.76 428.31 248.64 423.87 248.64C418.83 248.64 414.63 248.76 410.55 249L409.11 244.08C411.75 243 415.83 241.32 418.23 239.76V174.24C415.83 172.68 411.75 171 409.11 169.92L410.55 165C414.63 165.24 418.83 165.36 423.87 165.36C428.31 165.36 432.27 165.24 435.99 165L437.43 169.92C434.79 171 430.71 172.68 428.31 174.24V239.76C430.71 241.32 434.79 243 437.43 244.08ZM484.314 250.44C463.194 250.44 447.114 238.44 447.114 207.36C447.114 182.16 461.274 163.56 483.834 163.56C504.954 163.56 521.034 175.56 521.034 206.64C521.034 231.84 506.874 250.44 484.314 250.44ZM486.714 244.2C502.554 244.2 511.194 232.2 511.194 214.32C511.194 187.8 499.794 169.92 481.314 169.92C465.474 169.92 456.954 181.8 456.954 199.68C456.954 226.2 468.234 244.2 486.714 244.2ZM603.224 174.24V248.64L597.344 250.44L546.704 175.44H545.864L549.584 237.84C551.984 240.84 557.144 243.12 560.264 244.08L558.704 249C553.904 248.76 548.024 248.64 543.824 248.64C541.544 248.64 537.464 248.76 532.304 249L530.864 244.08C533.744 243 537.704 241.44 539.984 239.76V174.24C537.464 172.56 533.984 171 530.864 169.92L532.304 165C534.464 165.24 538.784 165.36 541.904 165.36C546.104 165.36 546.704 165.24 551.264 165L596.984 232.32H597.584L593.984 175.2C590.744 172.92 587.384 170.88 584.264 169.92L585.704 165C590.504 165.24 593.864 165.36 598.664 165.36C602.024 165.36 605.744 165.24 610.904 165L612.344 169.92C609.944 170.88 606.464 172.44 603.224 174.24ZM675.948 228.24C675.948 241.44 665.628 250.44 646.548 250.44C638.388 250.44 628.308 249.72 622.668 247.32L622.308 245.88C623.628 240.96 625.428 233.28 625.668 226.92H630.108L635.748 244.08C639.228 244.56 643.668 244.8 646.548 244.8C660.108 244.8 666.348 240.24 666.348 230.88C666.348 222.24 662.388 217.32 646.788 211.44C629.148 204.72 623.628 196.8 623.628 185.76C623.628 173.76 632.388 163.56 648.828 163.56C657.108 163.56 667.908 164.4 674.028 166.56L674.388 168C673.068 172.8 671.268 180.6 671.028 186.72H666.588L660.828 169.68C657.948 169.32 653.628 169.2 650.988 169.2C639.948 169.2 633.108 173.64 633.108 183C633.108 191.76 638.748 197.52 651.348 202.32C669.948 209.4 675.948 217.08 675.948 228.24Z" fill="white"/>
</svg>
